<svg xmlns="http://www.w3.org/2000/svg" xmlns:xlink="http://www.w3.org/1999/xlink" width="539" zoomAndPan="magnify" viewBox="0 0 404.25 339.74999" height="453" preserveAspectRatio="xMidYMid meet" version="1.0"><defs><g/><clipPath id="90303f0834"><path d="M 238.84375 133.824219 L 317.269531 133.824219 L 317.269531 206 L 238.84375 206 Z M 238.84375 133.824219 " clip-rule="nonzero"/></clipPath></defs><g clip-path="url(#90303f0834)"><path fill="#ffffff" d="M 300.683594 163.882812 L 317.175781 205.109375 L 309.101562 205.109375 L 304.597656 193.867188 L 289.269531 193.867188 L 284.773438 205.109375 L 276.703125 205.109375 L 293.1875 163.882812 Z M 268.828125 133.898438 L 268.828125 141.394531 L 291.316406 141.394531 L 291.316406 148.890625 L 283.9375 148.890625 C 281.019531 157.683594 276.496094 165.554688 270.371094 172.507812 C 273.082031 174.925781 276 177.058594 279.125 178.90625 L 276.3125 185.945312 C 272.273438 183.652344 268.527344 180.953125 265.078125 177.84375 C 261.730469 180.875 258.097656 183.511719 254.179688 185.753906 C 250.257812 187.996094 246.144531 189.792969 241.835938 191.140625 L 239.828125 183.910156 C 247.292969 181.53125 253.949219 177.730469 259.792969 172.511719 C 255.492188 167.644531 251.96875 162.269531 249.214844 156.386719 L 257.609375 156.386719 C 259.703125 160.253906 262.195312 163.847656 265.078125 167.167969 C 269.800781 161.726562 273.4375 155.632812 275.984375 148.894531 L 238.84375 148.890625 L 238.84375 141.394531 L 261.332031 141.394531 L 261.332031 133.898438 Z M 296.9375 174.695312 L 292.261719 186.371094 L 301.601562 186.371094 Z M 296.9375 174.695312 " fill-opacity="1" fill-rule="nonzero"/></g><g fill="#ffffff" fill-opacity="1"><g transform="translate(11.802048, 187.621182)"><g><path d="M 17.8125 0 L 9.5 0 L 5.15625 -34.453125 L 12.140625 -34.453125 L 14.875 -8.765625 L 15.453125 -8.765625 L 29.0625 -34.453125 L 36.640625 -34.453125 Z M 17.8125 0 "/></g></g></g><g fill="#ffffff" fill-opacity="1"><g transform="translate(42.532622, 187.621182)"><g><path d="M 12.9375 0.5 C 10.738281 0.5 8.820312 0.09375 7.1875 -0.71875 C 5.550781 -1.53125 4.289062 -2.710938 3.40625 -4.265625 C 2.519531 -5.816406 2.078125 -7.691406 2.078125 -9.890625 C 2.078125 -11.179688 2.222656 -12.523438 2.515625 -13.921875 C 3.085938 -16.535156 4.03125 -18.785156 5.34375 -20.671875 C 6.664062 -22.554688 8.335938 -23.992188 10.359375 -24.984375 C 12.378906 -25.984375 14.6875 -26.484375 17.28125 -26.484375 C 19.476562 -26.484375 21.390625 -26.066406 23.015625 -25.234375 C 24.648438 -24.398438 25.910156 -23.191406 26.796875 -21.609375 C 27.691406 -20.035156 28.140625 -18.160156 28.140625 -15.984375 C 28.140625 -14.765625 28 -13.457031 27.71875 -12.0625 C 27.144531 -9.457031 26.195312 -7.210938 24.875 -5.328125 C 23.550781 -3.441406 21.878906 -2 19.859375 -1 C 17.835938 0 15.53125 0.5 12.9375 0.5 Z M 13.546875 -5.046875 C 15.453125 -5.046875 17.054688 -5.707031 18.359375 -7.03125 C 19.660156 -8.363281 20.59375 -10.347656 21.15625 -12.984375 C 21.394531 -14.097656 21.515625 -15.070312 21.515625 -15.90625 C 21.515625 -17.625 21.085938 -18.894531 20.234375 -19.71875 C 19.390625 -20.539062 18.195312 -20.953125 16.65625 -20.953125 C 14.757812 -20.953125 13.15625 -20.285156 11.84375 -18.953125 C 10.539062 -17.628906 9.609375 -15.640625 9.046875 -12.984375 C 8.816406 -11.898438 8.703125 -10.9375 8.703125 -10.09375 C 8.703125 -8.375 9.128906 -7.101562 9.984375 -6.28125 C 10.835938 -5.457031 12.023438 -5.046875 13.546875 -5.046875 Z M 13.546875 -5.046875 "/></g></g><g transform="translate(72.744735, 187.621182)"><g><path d="M 11.234375 -29.109375 C 10.054688 -29.109375 9.097656 -29.460938 8.359375 -30.171875 C 7.628906 -30.890625 7.265625 -31.816406 7.265625 -32.953125 C 7.265625 -34.066406 7.628906 -34.976562 8.359375 -35.6875 C 9.097656 -36.40625 10.054688 -36.765625 11.234375 -36.765625 C 12.023438 -36.765625 12.726562 -36.597656 13.34375 -36.265625 C 13.957031 -35.941406 14.429688 -35.488281 14.765625 -34.90625 C 15.097656 -34.332031 15.265625 -33.679688 15.265625 -32.953125 C 15.265625 -32.210938 15.097656 -31.550781 14.765625 -30.96875 C 14.429688 -30.382812 13.957031 -29.925781 13.34375 -29.59375 C 12.726562 -29.269531 12.023438 -29.109375 11.234375 -29.109375 Z M 0.984375 0 L 6.53125 -26 L 13.0625 -26 L 7.515625 0 Z M 0.984375 0 "/></g></g></g><g fill="#ffffff" fill-opacity="1"><g transform="translate(86.743172, 187.621182)"><g/></g></g><g fill="#ffffff" fill-opacity="1"><g transform="translate(85.495978, 246.442898)"><g><path d="M 67.359375 2.0625 C 57.078125 2.0625 48.054688 -0.160156 40.296875 -4.609375 C 32.546875 -9.066406 26.539062 -15.398438 22.28125 -23.609375 C 18.03125 -31.828125 15.90625 -41.367188 15.90625 -52.234375 C 15.90625 -58.515625 16.625 -65.023438 18.0625 -71.765625 C 21.40625 -87.410156 26.867188 -100.765625 34.453125 -111.828125 C 42.046875 -122.890625 51.34375 -131.285156 62.34375 -137.015625 C 73.34375 -142.742188 85.484375 -145.609375 98.765625 -145.609375 C 111.203125 -145.609375 121.332031 -143.070312 129.15625 -138 C 136.976562 -132.925781 142.265625 -125.28125 145.015625 -115.0625 L 132.640625 -107.90625 L 130.1875 -107.90625 C 127.632812 -116.082031 123.578125 -121.890625 118.015625 -125.328125 C 112.453125 -128.765625 104.957031 -130.484375 95.53125 -130.484375 C 86.5 -130.484375 78.039062 -128.46875 70.15625 -124.4375 C 62.269531 -120.414062 55.347656 -114.035156 49.390625 -105.296875 C 43.429688 -96.554688 39.007812 -85.378906 36.125 -71.765625 C 34.5625 -64.566406 33.78125 -57.757812 33.78125 -51.34375 C 33.78125 -38.320312 37.097656 -28.703125 43.734375 -22.484375 C 50.378906 -16.265625 59.332031 -13.15625 70.59375 -13.15625 C 80.875 -13.15625 89.675781 -15.5625 97 -20.375 C 104.332031 -25.1875 110.78125 -32.894531 116.34375 -43.5 L 118.796875 -43.5 L 129.703125 -37.3125 C 125.515625 -28.539062 120.6875 -21.289062 115.21875 -15.5625 C 109.75 -9.832031 103.101562 -5.460938 95.28125 -2.453125 C 87.457031 0.554688 78.148438 2.0625 67.359375 2.0625 Z M 67.359375 2.0625 "/></g></g></g><g fill="#ffffff" fill-opacity="1"><g transform="translate(225.084426, 244.331336)"><g><path d="M 12.9375 0.5 C 10.738281 0.5 8.820312 0.09375 7.1875 -0.71875 C 5.550781 -1.53125 4.289062 -2.710938 3.40625 -4.265625 C 2.519531 -5.816406 2.078125 -7.691406 2.078125 -9.890625 C 2.078125 -11.179688 2.222656 -12.523438 2.515625 -13.921875 C 3.085938 -16.535156 4.03125 -18.785156 5.34375 -20.671875 C 6.664062 -22.554688 8.335938 -23.992188 10.359375 -24.984375 C 12.378906 -25.984375 14.6875 -26.484375 17.28125 -26.484375 C 19.476562 -26.484375 21.390625 -26.066406 23.015625 -25.234375 C 24.648438 -24.398438 25.910156 -23.191406 26.796875 -21.609375 C 27.691406 -20.035156 28.140625 -18.160156 28.140625 -15.984375 C 28.140625 -14.765625 28 -13.457031 27.71875 -12.0625 C 27.144531 -9.457031 26.195312 -7.210938 24.875 -5.328125 C 23.550781 -3.441406 21.878906 -2 19.859375 -1 C 17.835938 0 15.53125 0.5 12.9375 0.5 Z M 13.546875 -5.046875 C 15.453125 -5.046875 17.054688 -5.707031 18.359375 -7.03125 C 19.660156 -8.363281 20.59375 -10.347656 21.15625 -12.984375 C 21.394531 -14.097656 21.515625 -15.070312 21.515625 -15.90625 C 21.515625 -17.625 21.085938 -18.894531 20.234375 -19.71875 C 19.390625 -20.539062 18.195312 -20.953125 16.65625 -20.953125 C 14.757812 -20.953125 13.15625 -20.285156 11.84375 -18.953125 C 10.539062 -17.628906 9.609375 -15.640625 9.046875 -12.984375 C 8.816406 -11.898438 8.703125 -10.9375 8.703125 -10.09375 C 8.703125 -8.375 9.128906 -7.101562 9.984375 -6.28125 C 10.835938 -5.457031 12.023438 -5.046875 13.546875 -5.046875 Z M 13.546875 -5.046875 "/></g></g><g transform="translate(255.296539, 244.331336)"><g><path d="M 0.984375 0 L 6.5 -26 L 12.765625 -26 L 11.96875 -22.171875 L 12.421875 -22.0625 C 13.390625 -23.519531 14.546875 -24.617188 15.890625 -25.359375 C 17.234375 -26.109375 18.859375 -26.484375 20.765625 -26.484375 C 23.148438 -26.484375 24.96875 -25.832031 26.21875 -24.53125 C 27.46875 -23.238281 28.09375 -21.445312 28.09375 -19.15625 C 28.09375 -18.1875 27.972656 -17.117188 27.734375 -15.953125 L 24.34375 0 L 17.8125 0 L 21.234375 -16.09375 C 21.347656 -16.582031 21.40625 -17.078125 21.40625 -17.578125 C 21.40625 -18.660156 21.085938 -19.492188 20.453125 -20.078125 C 19.828125 -20.671875 18.898438 -20.96875 17.671875 -20.96875 C 15.867188 -20.96875 14.335938 -20.363281 13.078125 -19.15625 C 11.816406 -17.945312 10.914062 -16.046875 10.375 -13.453125 L 7.515625 0 Z M 0.984375 0 "/></g></g><g transform="translate(285.744317, 244.331336)"><g><path d="M 0.984375 0 L 6.5 -26 L 12.765625 -26 L 11.96875 -22.171875 L 12.421875 -22.0625 C 13.390625 -23.519531 14.546875 -24.617188 15.890625 -25.359375 C 17.234375 -26.109375 18.859375 -26.484375 20.765625 -26.484375 C 23.148438 -26.484375 24.96875 -25.832031 26.21875 -24.53125 C 27.46875 -23.238281 28.09375 -21.445312 28.09375 -19.15625 C 28.09375 -18.1875 27.972656 -17.117188 27.734375 -15.953125 L 24.34375 0 L 17.8125 0 L 21.234375 -16.09375 C 21.347656 -16.582031 21.40625 -17.078125 21.40625 -17.578125 C 21.40625 -18.660156 21.085938 -19.492188 20.453125 -20.078125 C 19.828125 -20.671875 18.898438 -20.96875 17.671875 -20.96875 C 15.867188 -20.96875 14.335938 -20.363281 13.078125 -19.15625 C 11.816406 -17.945312 10.914062 -16.046875 10.375 -13.453125 L 7.515625 0 Z M 0.984375 0 "/></g></g><g transform="translate(316.192094, 244.331336)"><g><path d="M 26.4375 -18.140625 C 25.84375 -15.253906 24.269531 -13.179688 21.71875 -11.921875 C 19.175781 -10.671875 16.066406 -10.046875 12.390625 -10.046875 C 11.085938 -10.046875 9.878906 -10.097656 8.765625 -10.203125 C 8.828125 -8.472656 9.28125 -7.179688 10.125 -6.328125 C 10.976562 -5.472656 12.175781 -5.046875 13.71875 -5.046875 C 15.144531 -5.046875 16.328125 -5.328125 17.265625 -5.890625 C 18.210938 -6.453125 19.078125 -7.316406 19.859375 -8.484375 L 20.359375 -8.484375 L 24.5625 -5.625 C 23.757812 -4.34375 22.863281 -3.257812 21.875 -2.375 C 20.882812 -1.5 19.628906 -0.800781 18.109375 -0.28125 C 16.597656 0.238281 14.738281 0.5 12.53125 0.5 C 10.539062 0.5 8.765625 0.0703125 7.203125 -0.78125 C 5.640625 -1.644531 4.410156 -2.890625 3.515625 -4.515625 C 2.628906 -6.140625 2.1875 -8.082031 2.1875 -10.34375 C 2.1875 -11.632812 2.335938 -12.992188 2.640625 -14.421875 C 3.171875 -16.929688 4.15625 -19.09375 5.59375 -20.90625 C 7.03125 -22.726562 8.765625 -24.113281 10.796875 -25.0625 C 12.835938 -26.007812 15.019531 -26.484375 17.34375 -26.484375 C 19.320312 -26.484375 21.003906 -26.179688 22.390625 -25.578125 C 23.785156 -24.972656 24.835938 -24.148438 25.546875 -23.109375 C 26.253906 -22.066406 26.609375 -20.90625 26.609375 -19.625 C 26.609375 -19.09375 26.550781 -18.597656 26.4375 -18.140625 Z M 16.734375 -21.421875 C 15.722656 -21.421875 14.742188 -21.191406 13.796875 -20.734375 C 12.847656 -20.285156 11.988281 -19.597656 11.21875 -18.671875 C 10.445312 -17.753906 9.859375 -16.613281 9.453125 -15.25 C 10.660156 -15.15625 11.804688 -15.109375 12.890625 -15.109375 C 15.023438 -15.109375 16.722656 -15.375 17.984375 -15.90625 C 19.253906 -16.4375 20.03125 -17.378906 20.3125 -18.734375 C 20.34375 -18.921875 20.359375 -19.070312 20.359375 -19.1875 C 20.359375 -19.84375 20.046875 -20.378906 19.421875 -20.796875 C 18.796875 -21.210938 17.898438 -21.421875 16.734375 -21.421875 Z M 16.734375 -21.421875 "/></g></g><g transform="translate(344.448197, 244.331336)"><g><path d="M 12.75 0.5 C 10.65625 0.5 8.800781 0.113281 7.1875 -0.65625 C 5.582031 -1.425781 4.320312 -2.582031 3.40625 -4.125 C 2.5 -5.675781 2.046875 -7.578125 2.046875 -9.828125 C 2.046875 -11.035156 2.203125 -12.398438 2.515625 -13.921875 C 3.085938 -16.535156 4.046875 -18.785156 5.390625 -20.671875 C 6.742188 -22.554688 8.460938 -23.992188 10.546875 -24.984375 C 12.628906 -25.984375 15.003906 -26.484375 17.671875 -26.484375 C 20.390625 -26.484375 22.503906 -25.96875 24.015625 -24.9375 C 25.523438 -23.914062 26.578125 -22.445312 27.171875 -20.53125 L 22.296875 -17.484375 L 21.796875 -17.484375 C 21.359375 -18.660156 20.75 -19.53125 19.96875 -20.09375 C 19.195312 -20.664062 18.109375 -20.953125 16.703125 -20.953125 C 14.867188 -20.953125 13.269531 -20.28125 11.90625 -18.9375 C 10.550781 -17.59375 9.578125 -15.515625 8.984375 -12.703125 C 8.796875 -11.835938 8.703125 -11.03125 8.703125 -10.28125 C 8.703125 -8.65625 9.113281 -7.375 9.9375 -6.4375 C 10.769531 -5.507812 11.941406 -5.046875 13.453125 -5.046875 C 16.035156 -5.046875 18.117188 -6.550781 19.703125 -9.5625 L 20.21875 -9.609375 L 24.71875 -6.96875 C 23.625 -4.664062 22.085938 -2.84375 20.109375 -1.5 C 18.140625 -0.164062 15.6875 0.5 12.75 0.5 Z M 12.75 0.5 "/></g></g><g transform="translate(371.243183, 244.331336)"><g><path d="M 12.9375 -20.828125 L 10.421875 -8.953125 C 10.328125 -8.515625 10.28125 -8.109375 10.28125 -7.734375 C 10.28125 -6.929688 10.492188 -6.316406 10.921875 -5.890625 C 11.359375 -5.460938 11.972656 -5.25 12.765625 -5.25 C 13.335938 -5.25 13.863281 -5.328125 14.34375 -5.484375 C 14.832031 -5.648438 15.332031 -5.890625 15.84375 -6.203125 L 16.328125 -6.203125 L 17.234375 -1.359375 C 16.410156 -0.753906 15.523438 -0.296875 14.578125 0.015625 C 13.628906 0.335938 12.390625 0.5 10.859375 0.5 C 9.429688 0.5 8.175781 0.242188 7.09375 -0.265625 C 6.007812 -0.773438 5.160156 -1.546875 4.546875 -2.578125 C 3.929688 -3.617188 3.625 -4.894531 3.625 -6.40625 C 3.625 -7.289062 3.726562 -8.21875 3.9375 -9.1875 L 6.40625 -20.828125 L 2.453125 -20.828125 L 3.5625 -26.015625 L 7.515625 -26.015625 L 8.609375 -31.078125 L 15.34375 -32.140625 L 14.046875 -26.015625 L 21.421875 -26.015625 L 20.3125 -20.828125 Z M 12.9375 -20.828125 "/></g></g></g><g fill="#ffffff" fill-opacity="1"><g transform="translate(141.778794, 187.621182)"><g><path d="M 26.4375 -18.140625 C 25.84375 -15.253906 24.269531 -13.179688 21.71875 -11.921875 C 19.175781 -10.671875 16.066406 -10.046875 12.390625 -10.046875 C 11.085938 -10.046875 9.878906 -10.097656 8.765625 -10.203125 C 8.828125 -8.472656 9.28125 -7.179688 10.125 -6.328125 C 10.976562 -5.472656 12.175781 -5.046875 13.71875 -5.046875 C 15.144531 -5.046875 16.328125 -5.328125 17.265625 -5.890625 C 18.210938 -6.453125 19.078125 -7.316406 19.859375 -8.484375 L 20.359375 -8.484375 L 24.5625 -5.625 C 23.757812 -4.34375 22.863281 -3.257812 21.875 -2.375 C 20.882812 -1.5 19.628906 -0.800781 18.109375 -0.28125 C 16.597656 0.238281 14.738281 0.5 12.53125 0.5 C 10.539062 0.5 8.765625 0.0703125 7.203125 -0.78125 C 5.640625 -1.644531 4.410156 -2.890625 3.515625 -4.515625 C 2.628906 -6.140625 2.1875 -8.082031 2.1875 -10.34375 C 2.1875 -11.632812 2.335938 -12.992188 2.640625 -14.421875 C 3.171875 -16.929688 4.15625 -19.09375 5.59375 -20.90625 C 7.03125 -22.726562 8.765625 -24.113281 10.796875 -25.0625 C 12.835938 -26.007812 15.019531 -26.484375 17.34375 -26.484375 C 19.320312 -26.484375 21.003906 -26.179688 22.390625 -25.578125 C 23.785156 -24.972656 24.835938 -24.148438 25.546875 -23.109375 C 26.253906 -22.066406 26.609375 -20.90625 26.609375 -19.625 C 26.609375 -19.09375 26.550781 -18.597656 26.4375 -18.140625 Z M 16.734375 -21.421875 C 15.722656 -21.421875 14.742188 -21.191406 13.796875 -20.734375 C 12.847656 -20.285156 11.988281 -19.597656 11.21875 -18.671875 C 10.445312 -17.753906 9.859375 -16.613281 9.453125 -15.25 C 10.660156 -15.15625 11.804688 -15.109375 12.890625 -15.109375 C 15.023438 -15.109375 16.722656 -15.375 17.984375 -15.90625 C 19.253906 -16.4375 20.03125 -17.378906 20.3125 -18.734375 C 20.34375 -18.921875 20.359375 -19.070312 20.359375 -19.1875 C 20.359375 -19.84375 20.046875 -20.378906 19.421875 -20.796875 C 18.796875 -21.210938 17.898438 -21.421875 16.734375 -21.421875 Z M 16.734375 -21.421875 "/></g></g></g></svg>